<svg id="Layer_1" enable-background="new 0 0 256 256" height="512" viewBox="0 0 256 256" width="512" xmlns="http://www.w3.org/2000/svg"><g><g><path d="m244.128 225.87h-82.49l-120.21-120.21c-3.91-3.91-3.91-10.24 0-14.14l3.29-3.29 38.97-38.98c1.09-1.08 2.61-1.61 4.15-1.42l12.65 1.54c.03 0 .05.01.08.01 1.56.22 2.88 1.15 3.62 2.44.42.7.66 1.5.69 2.35l.76 23.31 9.62 9.62c1.93 1.94 4.5 3.13 7.24 3.35l22.38 1.85c.14.01.27.03.41.05 3.65.47 6.62 3.2 7.39 6.83l5.32 22.85 5.57 23.9 8.98 38.57c.3 1.3 1.61 2.12 2.92 1.81h29.82c17.18 0 32.14 11.78 36.17 28.48z" fill="#ff4a73"/><path d="m221.638 16-76.35 76.35c-.14-.02-.27-.04-.41-.05l-22.38-1.85c-2.74-.22-5.31-1.41-7.24-3.35l-9.62-9.62-.76-23.31c-.08-2.43-1.91-4.45-4.31-4.79l40.45-40.45c.93-.94 2.21-1.46 3.53-1.46h73.55c4.45 0 6.69 5.38 3.54 8.53z" fill="#ffbb98"/><path d="m163.568 145.93-1.41.05-70.42 9.99-21.55-21.55 87.33-12.39h.48z" fill="#ffe2e2"/><path d="m159.548 7.47c-1.32 0-2.6.52-3.53 1.46l-50.95 51.22-.19-5.98c-.08-2.43-1.91-4.45-4.31-4.79l40.45-40.45c.93-.94 2.21-1.46 3.53-1.46z" fill="#ffcaa6"/><path d="m221.638 16-76.35 76.35c-.14-.02-.27-.04-.41-.05l-13.43-1.11 75.19-75.19c3.15-3.15.91-8.53-3.54-8.53h15c4.45 0 6.69 5.38 3.54 8.53z" fill="#ffaa80"/><path d="m104.188 51.82-72.53 72.53-4.6-4.54c-3.9-3.9-3.9-10.24 0-14.14l17.6-17.38.06-.06 38.97-38.98c1.09-1.08 2.61-1.61 4.15-1.42l12.65 1.54c.03 0 .05.01.08.01 1.56.22 2.88 1.15 3.62 2.44z" fill="#f973a3"/><path d="m45.888 110.12-14.23 14.23-4.6-4.54c-3.9-3.9-3.9-10.24 0-14.14l17.6-17.38-3.23 3.23c-3.91 3.9-3.91 10.23 0 14.14z" fill="#ffefee"/><path d="m244.128 225.87v12.66c0 5.53-4.48 10-10 10h-72.5c-2.63 0-5.16-1.03-7.03-2.88l-122.94-121.3-4.6-4.54c-3.9-3.9-3.9-10.24 0-14.14l17.6-17.38-3.23 3.23c-3.91 3.9-3.91 10.23 0 14.14l120.21 120.21z" fill="#ffe2e2"/><path d="m45.888 110.12-14.23 14.23-4.6-4.54c-3.9-3.9-3.9-10.24 0-14.14l17.6-17.38-3.23 3.23c-3.91 3.9-3.91 10.23 0 14.14z" fill="#ffefee"/><path d="m244.128 225.87h-15l-2.67-11.08c-4.03-16.7-18.99-28.48-36.17-28.48h15c17.18 0 32.14 11.78 36.17 28.48z" fill="#ea2a6a"/><path d="m244.128 225.87v12.66c0 5.53-4.48 10-10 10h-15c5.52 0 10-4.47 10-10v-12.66z" fill="#ffcfcf"/></g><g fill="#5f266d"><path d="m151.782 248.494c2.631 2.603 6.127 4.036 9.844 4.036h72.5c7.72 0 14-6.28 14-14 0-16.844.818-9.739-2.781-24.678-4.482-18.571-20.955-31.542-40.059-31.542h-29.144l-19.554-83.959c-.617-2.912-2.218-5.433-4.421-7.226l72.296-72.296c5.665-5.664 1.628-15.358-6.368-15.358h-73.55c-2.385 0-4.708.964-6.358 2.631l-39.072 39.072-10.79-1.314c-2.759-.343-5.478.589-7.468 2.562-46.886 46.898-34.518 34.584-56.63 56.42-5.458 5.458-5.458 14.338.019 19.815zm16.866-63.095c.387 1.675 1.405 3.099 2.869 4.008 1.302.808 2.81 1.121 4.307.903h29.462c15.396 0 28.67 10.453 32.281 25.417l1.48 6.143h-75.755l-63.062-63.061 60.235-8.545zm-10.004-42.957-65.489 9.29-14.482-14.482 76.243-10.815zm-14.786-130.697c.172-.174.423-.274.688-.274h73.55c.444 0 .757.208.927.62.169.406.096.77-.215 1.081l-75.024 75.024-20.967-1.733c-1.788-.144-3.467-.919-4.732-2.191l-8.502-8.502-.708-21.731c-.065-1.973-.809-3.889-1.973-5.336zm-57.356 40.346c.226-.223.527-.331.851-.291l12.65 1.54c.002 0 .004 0 .005.001.429.062.853.45.87.959l.76 23.31c.033 1.015.451 1.98 1.17 2.698l9.613 9.613c2.603 2.615 6.067 4.219 9.746 4.515l22.388 1.85.164.023c.022.003.045.006.056.008 1.971.253 3.573 1.737 4.005 3.77l4.314 18.526-81.498 11.561c-29.437-29.437-29.105-27.898-29.104-31.592.003-3.342-2.041-.43 44.01-46.491zm-56.636 56.425 5.397-5.33c.619 1.782 1.796 3.764 3.334 5.302l120.21 120.21c.75.75 1.768 1.171 2.828 1.171h78.49v8.66c0 3.309-2.691 6-6 6h-72.5c-1.596 0-3.094-.612-4.221-1.727l-127.521-125.82c-2.338-2.339-2.338-6.145-.017-8.466z"/><path d="m71.568 117.35c1.573 1.549 4.104 1.533 5.657-.042 1.55-1.574 1.531-4.106-.042-5.657l-.825-.813c-1.573-1.55-4.105-1.531-5.657.042-1.55 1.574-1.531 4.106.042 5.657z"/><path d="m60.056 106.012c.779.767 1.793 1.15 2.807 1.15 1.034 0 2.067-.398 2.85-1.193 1.551-1.574 1.531-4.106-.043-5.657l-4.988-4.912c-1.574-1.549-4.107-1.531-5.656.043-1.551 1.574-1.531 4.106.043 5.657z"/><path d="m11.795 182.333h34.094c2.209 0 4-1.791 4-4s-1.791-4-4-4h-34.094c-2.209 0-4 1.791-4 4s1.791 4 4 4z"/><path d="m62.935 205.25c2.209 0 4-1.791 4-4s-1.791-4-4-4h-30.056c-2.209 0-4 1.791-4 4s1.791 4 4 4z"/><path d="m113.846 244.5c2.209 0 4-1.791 4-4s-1.791-4-4-4h-20.882c-2.209 0-4 1.791-4 4s1.791 4 4 4z"/><path d="m13.964 240.5c0 2.209 1.791 4 4 4h60c2.209 0 4-1.791 4-4s-1.791-4-4-4h-60c-2.209 0-4 1.791-4 4z"/></g></g></svg>